<?xml version="1.0" standalone="no"?>
<!DOCTYPE svg PUBLIC "-//W3C//DTD SVG 20010904//EN"
 "http://www.w3.org/TR/2001/REC-SVG-20010904/DTD/svg10.dtd">
<svg version="1.0" xmlns="http://www.w3.org/2000/svg"
 width="512.000000pt" height="512.000000pt" viewBox="0 0 512.000000 512.000000"
 preserveAspectRatio="xMidYMid meet">
<metadata>
Created by potrace 1.14, written by Peter Selinger 2001-2017
</metadata>
<g transform="translate(0.000000,512.000000) scale(0.100000,-0.100000)"
fill="#000000" stroke="none">
<path d="M2379 5116 c-2 -2 -38 -6 -79 -10 -64 -6 -207 -29 -315 -51 -63 -13
-241 -67 -331 -101 -380 -142 -756 -403 -1016 -704 -71 -82 -82 -96 -104 -125
-10 -15 -33 -46 -50 -69 -204 -275 -365 -641 -433 -991 -40 -200 -46 -267 -45
-515 0 -183 3 -241 19 -345 3 -16 7 -43 9 -60 37 -265 165 -622 307 -860 10
-16 26 -43 35 -60 19 -35 138 -207 156 -227 7 -7 29 -34 48 -58 130 -169 360
-377 570 -517 290 -192 661 -340 975 -388 22 -3 69 -10 105 -16 109 -18 520
-19 640 -3 378 51 692 160 1005 349 576 346 993 900 1160 1538 63 244 80 379
80 647 0 222 -11 343 -44 505 -6 28 -13 61 -15 75 -11 56 -50 190 -78 270
-205 578 -586 1044 -1113 1362 -278 168 -636 293 -955 334 -25 3 -56 8 -70 10
-29 6 -456 15 -461 10z"/>
</g>
</svg>
